<?xml version="1.0" encoding="UTF-8" standalone="no"?>
<!DOCTYPE svg PUBLIC "-//W3C//DTD SVG 1.1//EN" "http://www.w3.org/Graphics/SVG/1.1/DTD/svg11.dtd">
<svg width="100%" height="100%" viewBox="0 0 256 256" version="1.1" xmlns="http://www.w3.org/2000/svg" xmlns:xlink="http://www.w3.org/1999/xlink" xml:space="preserve" xmlns:serif="http://www.serif.com/" style="fill-rule:evenodd;clip-rule:evenodd;stroke-linecap:round;stroke-linejoin:round;stroke-miterlimit:1.5;">
    <g transform="matrix(1,0,0,1,0.38381,0.0428571)">
        <circle cx="127.616" cy="127.957" r="123.714" style="fill:none;stroke:white;stroke-width:8px;"/>
    </g>
    <g transform="matrix(0.315733,0,0,0.315733,85.0597,55.7098)">
        <path d="M136,457C118,457 110.235,452.57 106.691,445.234L100,431.383L172,431.383L165.309,445.234C161.765,452.57 153,457 136,457Z" style="fill:url(#_Linear1);"/>
        <path d="M193,406.923L189.69,416.624C186.938,424.692 180.444,430.987 172.232,433.276C160.614,436.513 147.213,438.133 134.12,438.133C122.029,438.133 110.202,436.751 100.291,433.986C91.968,431.665 85.31,425.422 82.52,417.244L79,406.923L193,406.923Z" style="fill:url(#_Linear2);"/>
        <path d="M204,391.623C204,411.3 173.556,416.923 136,416.923C98.444,416.923 68,411.3 68,391.623C68,377.65 98.444,371.946 136,371.946C173.556,371.946 204,377.65 204,391.623Z" style="fill:url(#_Linear3);"/>
        <path d="M207.04,368.611C207.04,388.289 175.234,393.911 136,393.911C96.765,393.911 64.96,388.289 64.96,368.611C64.96,354.639 96.765,348.934 136,348.934C175.234,348.934 207.04,354.639 207.04,368.611Z" style="fill:url(#_Linear4);"/>
        <path d="M208,346.515C208,367.108 175.765,372.992 136,372.992C96.235,372.992 64,367.108 64,346.515C64,331.893 96.235,325.923 136,325.923C175.765,325.923 208,331.893 208,346.515Z" style="fill:url(#_Linear5);"/>
        <path d="M136,354.923C111.697,354.923 60,349.922 60,316.963C60,281.192 48.019,246.613 26.71,217.882C9.929,195.262 0,167.253 0,136.923C0,61.815 60.892,0.919 135.996,0.919C136.328,0.919 136.658,0.921 136.99,0.923C211.02,1.453 271.47,61.903 272,135.932C272.22,166.862 262.109,195.412 244.93,218.373C223.89,246.472 212,280.363 212,315.472L212,316.963C212,345.922 160.303,354.923 136,354.923ZM89.657,37.923C77.579,37.923 63.088,44.379 51.154,56.233C32.432,74.827 27.086,99.66 39.211,111.698C41.466,113.938 43.506,114.923 45.456,114.923C53.988,114.923 60.771,96.052 76.01,80.921C94.727,62.326 119.118,56.409 106.998,44.371C102.604,40.007 96.52,37.923 89.657,37.923Z" style="fill:white;"/>
    </g>
    <defs>
        <linearGradient id="_Linear1" x1="0" y1="0" x2="1" y2="0" gradientUnits="userSpaceOnUse" gradientTransform="matrix(1.56863e-16,25.6176,-25.6176,1.56863e-16,136,431.383)"><stop offset="0" style="stop-color:white;stop-opacity:1"/><stop offset="0.46" style="stop-color:rgb(192,193,194);stop-opacity:1"/><stop offset="1" style="stop-color:rgb(34,38,41);stop-opacity:1"/></linearGradient>
        <linearGradient id="_Linear2" x1="0" y1="0" x2="1" y2="0" gradientUnits="userSpaceOnUse" gradientTransform="matrix(1.91106e-16,31.21,-31.21,1.91106e-16,136,406.923)"><stop offset="0" style="stop-color:white;stop-opacity:1"/><stop offset="0.5" style="stop-color:rgb(200,201,202);stop-opacity:1"/><stop offset="1" style="stop-color:rgb(34,38,41);stop-opacity:1"/></linearGradient>
        <linearGradient id="_Linear3" x1="0" y1="0" x2="1" y2="0" gradientUnits="userSpaceOnUse" gradientTransform="matrix(2.75405e-16,44.977,-44.977,2.75405e-16,136,371.946)"><stop offset="0" style="stop-color:white;stop-opacity:1"/><stop offset="0.5" style="stop-color:rgb(200,201,202);stop-opacity:1"/><stop offset="1" style="stop-color:rgb(34,38,41);stop-opacity:1"/></linearGradient>
        <linearGradient id="_Linear4" x1="0" y1="0" x2="1" y2="0" gradientUnits="userSpaceOnUse" gradientTransform="matrix(2.75405e-16,44.977,-44.977,2.75405e-16,136,348.934)"><stop offset="0" style="stop-color:white;stop-opacity:1"/><stop offset="0.52" style="stop-color:rgb(204,205,205);stop-opacity:1"/><stop offset="1" style="stop-color:rgb(34,38,41);stop-opacity:1"/></linearGradient>
        <linearGradient id="_Linear5" x1="0" y1="0" x2="1" y2="0" gradientUnits="userSpaceOnUse" gradientTransform="matrix(3.73963e-13,36.3537,-36.3537,3.73963e-13,136,337.478)"><stop offset="0" style="stop-color:white;stop-opacity:1"/><stop offset="0.54" style="stop-color:rgb(206,207,207);stop-opacity:1"/><stop offset="1" style="stop-color:rgb(34,38,41);stop-opacity:1"/></linearGradient>
    </defs>
</svg>
