<?xml version="1.0" encoding="UTF-8" standalone="no"?><!DOCTYPE svg PUBLIC "-//W3C//DTD SVG 1.1//EN" "http://www.w3.org/Graphics/SVG/1.1/DTD/svg11.dtd"><svg width="100%" height="100%" viewBox="0 0 800 800" version="1.1" xmlns="http://www.w3.org/2000/svg" xmlns:xlink="http://www.w3.org/1999/xlink" xml:space="preserve" xmlns:serif="http://www.serif.com/" style="fill-rule:evenodd;clip-rule:evenodd;stroke-linejoin:round;stroke-miterlimit:2;"><path d="M518.467,531.412c-31.987,30.646 -75.421,47.52 -122.335,47.52c-36.443,0 -72.644,-10.275 -104.72,-29.742l-167.044,-101.353l-0,40.315l177.408,107.672c29.804,18.064 62.605,26.812 94.361,26.812c40.713,0 79.72,-14.377 108.503,-41.958c21.038,-20.163 32.66,-44.333 32.15,-67.79l-0,-2.918c-5.383,7.736 -11.521,14.919 -18.323,21.442Zm0,-63.676c-31.987,30.64 -75.421,47.52 -122.335,47.52c-36.443,0 -72.644,-10.28 -104.72,-29.742l-167.044,-101.353l-0,40.309l177.408,107.666c29.804,18.07 62.605,26.847 94.361,26.847c40.713,-0 79.72,-14.377 108.503,-41.959c21.038,-20.163 32.66,-44.333 32.15,-67.784l-0,-2.98c-5.377,7.752 -11.515,14.946 -18.323,21.476Zm0,127.386c-31.987,30.64 -75.421,47.52 -122.335,47.52c-36.443,0 -72.644,-10.28 -104.72,-29.742l-167.044,-101.381l-0,40.314l177.408,107.667c29.804,18.07 62.605,26.818 94.361,26.818c40.713,0 79.72,-14.383 108.503,-41.964c21.038,-20.157 32.66,-44.333 32.15,-67.779l-0,-2.929c-5.383,7.74 -11.52,14.927 -18.323,21.454l0,0.022Zm0,63.682c-31.987,30.64 -75.421,47.52 -122.335,47.52c-36.443,0 -72.644,-10.281 -104.72,-29.742l-167.044,-101.381l-0,40.314l177.408,107.667c29.804,18.069 62.605,26.818 94.361,26.818c40.713,-0 79.72,-14.377 108.503,-41.964c21.038,-20.158 32.66,-44.333 32.15,-67.779l-0,-2.923c-5.383,7.738 -11.52,14.922 -18.323,21.448l0,0.022Zm140.018,-279.806c-1.122,1.122 -2.127,2.301 -3.299,3.418c-10.857,10.199 -23.095,18.821 -36.353,25.612c-19.286,9.77 -40.39,15.432 -61.976,16.627l-0.084,0l-0,43.564l0.062,-0c30.499,-1.953 60.584,-13.614 84.529,-36.544c1.307,-1.257 2.458,-2.547 3.698,-3.816c4.704,-4.783 9.042,-9.911 12.98,-15.342c3.99,-5.517 7.428,-11.414 10.264,-17.604c3.913,-8.469 6.301,-17.564 7.054,-26.863c0.151,-2.021 0.336,-4.041 0.314,-6.055l-0,-3.581c-1.218,1.751 -2.391,3.513 -3.709,5.253c-4.161,5.393 -8.664,10.514 -13.48,15.331Zm0.056,-63.614c-1.122,1.122 -2.199,2.244 -3.367,3.367c-10.872,10.168 -23.093,18.79 -36.319,25.623c-13.518,6.815 -27.963,11.612 -42.873,14.237c-7.641,1.408 -15.374,2.261 -23.137,2.553c0.83,2.638 1.476,5.314 2.042,8.008c1.362,6.444 1.987,13.022 1.863,19.607l0,15.769l0.09,0c14.186,-0.866 28.153,-3.924 41.403,-9.063c16.018,-6.277 30.66,-15.617 43.104,-27.497c1.308,-1.257 2.458,-2.542 3.698,-3.816c4.711,-4.773 9.056,-9.894 12.997,-15.32c3.993,-5.514 7.43,-11.408 10.264,-17.598c3.913,-8.468 6.301,-17.56 7.054,-26.858c0.151,-2.02 0.336,-4.04 0.314,-6.061l-0,-3.367c-1.173,1.684 -2.408,3.367 -3.681,5.051c-4.152,5.403 -8.645,10.535 -13.452,15.365Zm-0.056,127.296c-1.122,1.122 -2.132,2.295 -3.299,3.417c-26.437,25.343 -61.073,40.147 -98.329,42.24l-0.051,-0l0,43.564l0.034,-0c30.449,-1.953 60.562,-13.598 84.507,-36.544c12.256,-11.74 21.195,-24.13 26.936,-36.74c3.913,-8.468 6.301,-17.56 7.054,-26.857c0.152,-2.026 0.337,-4.047 0.314,-6.061l0,-3.586c-1.217,1.756 -2.39,3.519 -3.709,5.253c-4.153,5.387 -8.648,10.503 -13.457,15.314Zm-101.628,109.339l0,43.563c30.477,-1.953 60.562,-13.591 84.507,-36.543c22.823,-21.886 34.54,-45.921 34.282,-69.658l-0,-3.592c-5.989,8.672 -12.844,16.712 -20.46,23.996c-26.443,25.331 -61.073,40.14 -98.329,42.234Zm60.388,-399.745l-168.52,-102.274l-196.45,188.234l-127.907,122.554l177.408,107.667c29.804,18.069 62.605,26.818 94.361,26.818c40.713,-0 79.72,-14.377 108.503,-41.959c31.302,-29.995 41.689,-68.822 22.374,-101.073c-3.136,-5.238 -6.862,-10.1 -11.106,-14.489c10.345,2.306 20.911,3.479 31.51,3.496l0.241,0c17.309,0.026 34.471,-3.183 50.601,-9.461c16.019,-6.275 30.661,-15.616 43.104,-27.498c1.302,-1.24 2.536,-2.497 3.76,-3.754c4.694,-4.775 9.024,-9.896 12.952,-15.32c3.984,-5.511 7.414,-11.402 10.241,-17.587c3.923,-8.436 6.334,-17.497 7.121,-26.768c2.424,-31.678 -16.274,-63.177 -58.193,-88.586Zm-162.179,266.685c-31.543,30.236 -82.318,34.692 -123.626,9.641l-122.756,-74.507l110.174,-105.601l124.816,75.775c45.001,27.273 42.52,64.883 11.409,94.692l-0.017,0Zm134.962,-146.606c-30.191,28.94 -79.013,37.352 -120.355,12.295l-115.41,-70.062l105.219,-100.904l113.324,68.794c42.374,25.69 47.879,60.511 17.239,89.877l-0.017,0Z" style="fill:url(#_Linear1);fill-rule:nonzero;"/><defs><linearGradient id="_Linear1" x1="0" y1="0" x2="1" y2="0" gradientUnits="userSpaceOnUse" gradientTransform="matrix(121.752,-690.505,690.505,121.752,344.47,743.591)"><stop offset="0" style="stop-color:#36baa2;stop-opacity:1"/><stop offset="0.07" style="stop-color:#36baa2;stop-opacity:1"/><stop offset="0.34" style="stop-color:#61ddc8;stop-opacity:1"/><stop offset="0.53" style="stop-color:#7df3e1;stop-opacity:1"/><stop offset="1" style="stop-color:#7df3e1;stop-opacity:1"/></linearGradient></defs></svg>