<?xml version="1.0" encoding="UTF-8" standalone="no"?>
<!DOCTYPE svg PUBLIC "-//W3C//DTD SVG 1.1//EN" "http://www.w3.org/Graphics/SVG/1.1/DTD/svg11.dtd">
<svg width="100%" height="100%" viewBox="0 0 800 800" version="1.1" xmlns="http://www.w3.org/2000/svg" xmlns:xlink="http://www.w3.org/1999/xlink" xml:space="preserve" xmlns:serif="http://www.serif.com/" style="fill-rule:evenodd;clip-rule:evenodd;stroke-linejoin:round;stroke-miterlimit:2;">
    <g transform="matrix(0.875015,0,0,0.875015,49.9947,49.994)">
        <path d="M617.1,226.8L624.6,215.45L637.7,223.4L643.5,227.55C657.5,238.35 686.95,265.95 693.3,311.75C704.45,309.75 715.7,308.75 726.95,308.75C753.65,308.75 771.6,314.95 781.8,320.1L787.05,322.95L790.45,325.2L800,333L796.7,343C791.571,356.709 783.556,369.157 773.2,379.5C758.7,394.45 733.2,412.1 692.75,414.4L683.85,414.65L676.45,414.65C657.95,463.5 633.1,518.55 591.35,567.95C566.578,597.305 537.193,622.434 504.35,642.35C464.975,665.71 421.855,682.086 376.9,690.75C344.7,697 312,700.1 279.25,700C206.75,700 142.75,685.6 103.4,660.4C68.25,637.95 41.25,601.3 23.1,551.55C7.217,506.091 -0.585,458.2 0.05,410.05C-0.119,397.348 9.116,386.317 21.65,384.25L25.05,384L552.05,384L556.65,383.65L564.1,382.85C576.9,381.15 596.4,377.35 610.1,369.35C593.7,342.2 589.05,310.45 596.7,276.65C599.904,262.551 604.947,248.934 611.7,236.15L617.1,226.8ZM144.5,289.2L146.5,289.55C148.35,290.242 149.775,291.76 150.35,293.65L150.65,295.65L150.65,361.4L150.35,363.45C149.765,365.351 148.319,366.871 146.45,367.55L144.5,367.85L73.9,367.85C71.207,367.814 68.832,366.027 68.05,363.45L67.7,361.45L67.7,295.6L68.05,293.6C68.622,291.68 70.069,290.14 71.95,289.45L73.9,289.15L144.5,289.15L144.5,289.2ZM241.85,289.2L243.8,289.55C245.669,290.229 247.115,291.749 247.7,293.65L248,295.65L248,361.4L247.65,363.45C247.065,365.351 245.619,366.871 243.75,367.55L241.8,367.85L171.2,367.85C168.512,367.798 166.145,366.018 165.35,363.45L165,361.5L165,295.65C164.978,292.915 166.684,290.447 169.25,289.5L171.2,289.15L241.85,289.15L241.85,289.2ZM340.65,289.2L342.6,289.55C344.45,290.242 345.875,291.76 346.45,293.65L346.8,295.65L346.8,361.4L346.45,363.45C345.865,365.351 344.419,366.871 342.55,367.55L340.6,367.85L270,367.85C267.307,367.814 264.932,366.027 264.15,363.45L263.85,361.45L263.85,295.6L264.15,293.6C264.722,291.68 266.169,290.14 268.05,289.45L270,289.15L340.65,289.15L340.65,289.2ZM438.25,289.2L440.2,289.55C442.069,290.229 443.515,291.749 444.1,293.65L444.45,295.65L444.45,361.4C444.472,364.135 442.766,366.603 440.2,367.55L438.2,367.85L367.65,367.85C364.957,367.814 362.582,366.027 361.8,363.45L361.5,361.45L361.5,295.6L361.8,293.6C362.372,291.68 363.819,290.14 365.7,289.45L367.7,289.15L438.3,289.15L438.25,289.2ZM536.75,289.2L538.7,289.55C540.569,290.229 542.015,291.749 542.6,293.65L542.9,295.65L542.9,361.4C542.922,364.135 541.216,366.603 538.65,367.55L536.7,367.85L466.1,367.85C463.407,367.814 461.032,366.027 460.25,363.45L459.95,361.45L459.95,295.6L460.25,293.6C460.822,291.68 462.269,290.14 464.15,289.45L466.15,289.15L536.7,289.15L536.75,289.2ZM241.75,194.6L243.75,194.95C245.589,195.632 247.012,197.129 247.6,199L247.95,201.05L247.95,266.8C247.972,269.535 246.266,272.003 243.7,272.95L241.75,273.3L171.2,273.3C168.485,273.235 166.11,271.407 165.35,268.8L165,266.8L165,201.05C164.999,198.334 166.701,195.89 169.25,194.95L171.2,194.6L241.8,194.6L241.75,194.6ZM340.55,194.6L342.55,194.95C344.389,195.632 345.812,197.129 346.4,199L346.75,201.05L346.75,266.8C346.772,269.535 345.066,272.003 342.5,272.95L340.55,273.3L270,273.3C267.285,273.235 264.91,271.407 264.15,268.8L263.85,266.8L263.85,201.05L264.15,199.05C264.735,197.149 266.181,195.629 268.05,194.95L270,194.6L340.6,194.6L340.55,194.6ZM438.2,194.6C440.9,194.6 443.2,196.45 444.05,199L444.4,201.05L444.4,266.8C444.422,269.535 442.716,272.003 440.15,272.95L438.15,273.3L367.65,273.3C364.935,273.235 362.56,271.407 361.8,268.8L361.5,266.8L361.5,201.05L361.8,199.05C362.385,197.149 363.831,195.629 365.7,194.95L367.7,194.6L438.3,194.6L438.2,194.6ZM438.2,100C440.9,100 443.2,101.85 444.05,104.4L444.4,106.4L444.4,172.2C444.422,174.935 442.716,177.403 440.15,178.35L438.15,178.65L367.65,178.65C364.957,178.614 362.582,176.827 361.8,174.25L361.5,172.25L361.5,106.4L361.8,104.4C362.385,102.499 363.831,100.979 365.7,100.3L367.65,100L438.25,100L438.2,100Z" style="fill:rgb(35,150,237);fill-rule:nonzero;"/>
    </g>
</svg>
