<?xml version="1.0" encoding="UTF-8" standalone="no"?><!DOCTYPE svg PUBLIC "-//W3C//DTD SVG 1.1//EN" "http://www.w3.org/Graphics/SVG/1.1/DTD/svg11.dtd"><svg width="100%" height="100%" viewBox="0 0 800 800" version="1.1" xmlns="http://www.w3.org/2000/svg" xmlns:xlink="http://www.w3.org/1999/xlink" xml:space="preserve" xmlns:serif="http://www.serif.com/" style="fill-rule:evenodd;clip-rule:evenodd;stroke-linejoin:round;stroke-miterlimit:2;"><g><path d="M720,692.673c-0,15.446 -12.673,27.327 -27.327,27.327l-585.346,-0c-15.446,-0 -27.327,-12.673 -27.327,-27.327l0,-585.346c0,-15.446 12.673,-27.327 27.327,-27.327l585.346,0c15.446,0 27.327,12.673 27.327,27.327l-0,585.346Z" style="fill:#f08705;fill-rule:nonzero;"/><g><path d="M720,692.673c-0,15.446 -12.673,27.327 -27.327,27.327l-393.663,-0l-127.525,-129.505l79.208,-129.505l235.248,-292.277l233.267,240.396l0.792,283.564Z" style="fill:#df6c0c;fill-rule:nonzero;"/></g><path d="M605.545,437.624l-67.327,-0l-71.287,-121.188c15.841,-3.169 27.722,-17.426 27.722,-34.06l0,-91.485c0,-19.406 -15.445,-34.851 -34.851,-34.851l-118.812,-0c-19.406,-0 -34.851,15.445 -34.851,34.851l-0,91.485c-0,17.03 11.881,30.891 27.326,34.06l-71.287,121.584l-67.327,-0c-19.405,-0 -34.851,15.445 -34.851,34.851l0,91.485c0,19.406 15.446,34.852 34.851,34.852l118.812,-0c19.406,-0 34.852,-15.446 34.852,-34.852l-0,-91.485c-0,-19.406 -15.446,-34.851 -34.852,-34.851l-11.485,-0l70.495,-120.396l55.05,-0l70.891,120.396l-11.881,-0c-19.406,-0 -34.852,15.445 -34.852,34.851l0,91.485c0,19.406 15.446,34.852 34.852,34.852l118.812,-0c19.405,-0 34.851,-15.446 34.851,-34.852l0,-91.485c0,-19.406 -15.446,-35.247 -34.851,-35.247Z" style="fill:#fff;fill-rule:nonzero;"/></g></svg>