<?xml version="1.0" encoding="UTF-8" standalone="no"?>
<!DOCTYPE svg PUBLIC "-//W3C//DTD SVG 1.1//EN" "http://www.w3.org/Graphics/SVG/1.1/DTD/svg11.dtd">
<svg width="100%" height="100%" viewBox="0 0 800 800" version="1.1" xmlns="http://www.w3.org/2000/svg" xmlns:xlink="http://www.w3.org/1999/xlink" xml:space="preserve" xmlns:serif="http://www.serif.com/" style="fill-rule:evenodd;clip-rule:evenodd;stroke-linejoin:round;stroke-miterlimit:2;">
    <g transform="matrix(1.16667,0,0,1.16667,-66.6667,-66.6667)">
        <path d="M400,400C400,344.773 444.773,300 500,300C555.228,300 600,344.773 600,400C600,455.227 555.228,500 500,500C444.773,500 400,455.227 400,400Z" style="fill:rgb(26,188,254);"/>
    </g>
    <g transform="matrix(1.16667,0,0,1.16667,-66.6667,-66.6667)">
        <path d="M200,600C200,544.773 244.772,500 300,500L400,500L400,600C400,655.228 355.227,700 300,700C244.772,700 200,655.228 200,600Z" style="fill:rgb(10,207,131);"/>
    </g>
    <g transform="matrix(1.16667,0,0,1.16667,-66.6667,-66.6667)">
        <path d="M400,100L400,300L500,300C555.228,300 600,255.228 600,200C600,144.772 555.228,100 500,100L400,100Z" style="fill:rgb(255,114,98);"/>
    </g>
    <g transform="matrix(1.16667,0,0,1.16667,-66.6667,-66.6667)">
        <path d="M200,200C200,255.228 244.772,300 300,300L400,300L400,100L300,100C244.772,100 200,144.772 200,200Z" style="fill:rgb(242,78,30);"/>
    </g>
    <g transform="matrix(1.16667,0,0,1.16667,-66.6667,-66.6667)">
        <path d="M200,400C200,455.227 244.772,500 300,500L400,500L400,300L300,300C244.772,300 200,344.773 200,400Z" style="fill:rgb(162,89,255);"/>
    </g>
</svg>
