<?xml version="1.0" encoding="UTF-8" standalone="no"?><!DOCTYPE svg PUBLIC "-//W3C//DTD SVG 1.1//EN" "http://www.w3.org/Graphics/SVG/1.1/DTD/svg11.dtd"><svg width="100%" height="100%" viewBox="0 0 800 800" version="1.1" xmlns="http://www.w3.org/2000/svg" xmlns:xlink="http://www.w3.org/1999/xlink" xml:space="preserve" xmlns:serif="http://www.serif.com/" style="fill-rule:evenodd;clip-rule:evenodd;stroke-linejoin:round;stroke-miterlimit:2;"><path d="M400.261,90.249c-174.331,0 -315.261,141.969 -315.261,317.603c0,140.394 90.298,259.235 215.566,301.296c15.662,3.162 21.399,-6.833 21.399,-15.242c-0,-7.363 -0.516,-32.601 -0.516,-58.897c-87.698,18.933 -105.96,-37.861 -105.96,-37.861c-14.094,-36.808 -34.976,-46.269 -34.976,-46.269c-28.704,-19.456 2.09,-19.456 2.09,-19.456c31.84,2.104 48.547,32.601 48.547,32.601c28.181,48.373 73.592,34.705 91.86,26.29c2.607,-20.508 10.964,-34.705 19.837,-42.59c-69.945,-7.363 -143.536,-34.705 -143.536,-156.701c-0,-34.705 12.519,-63.099 32.355,-85.182c-3.129,-7.885 -14.093,-40.493 3.137,-84.135c-0,-0 26.619,-8.415 86.639,32.601c25.697,-6.952 52.198,-10.489 78.819,-10.519c26.619,0 53.754,3.685 78.812,10.519c60.026,-41.016 86.646,-32.601 86.646,-32.601c17.229,43.642 6.259,76.25 3.129,84.135c20.36,22.083 32.363,50.477 32.363,85.182c-0,121.996 -73.592,148.809 -144.06,156.701c11.487,9.989 21.399,28.916 21.399,58.891c-0,42.59 -0.516,76.773 -0.516,87.285c-0,8.415 5.743,18.41 21.398,15.255c125.268,-42.074 215.567,-160.909 215.567,-301.303c0.516,-175.634 -140.93,-317.603 -314.738,-317.603Z" style="stroke:#FFFFFF;stroke-width:4;"/></svg>