<?xml version="1.0" encoding="UTF-8" standalone="no"?><!DOCTYPE svg PUBLIC "-//W3C//DTD SVG 1.1//EN" "http://www.w3.org/Graphics/SVG/1.1/DTD/svg11.dtd"><svg width="100%" height="100%" viewBox="0 0 800 800" version="1.1" xmlns="http://www.w3.org/2000/svg" xmlns:xlink="http://www.w3.org/1999/xlink" xml:space="preserve" xmlns:serif="http://www.serif.com/" style="fill-rule:evenodd;clip-rule:evenodd;stroke-linejoin:round;stroke-miterlimit:2;stroke:#FFFFFF;stroke-width:4;"><rect x="612.954" y="303.063" width="86.784" height="331.278" style="fill:#010202stroke:#FFFFFF;stroke-width:4;fill-rule:nonzero;"/><path d="M562.596,165.659c-75.705,-0 -137.405,61.7 -137.405,137.404l86.784,0c0,-27.795 22.588,-50.62 50.621,-50.62l-0,-86.784Z" style="fill:#e94d4f;fill-rule:nonzero;"/><path d="M562.6,165.659c75.704,-0 137.404,61.7 137.404,137.404l-86.784,0c0,-27.795 -22.588,-50.62 -50.62,-50.62l0,-86.784Z" style="fill:#c98cbd;fill-rule:nonzero;"/><path d="M512,547.819l-137.191,-0l-0.009,86.522l137.175,0l0.025,-86.522Z" style="fill:#f7a813;fill-rule:nonzero;"/><path d="M374.809,303.301c-0,-75.704 -61.7,-137.404 -137.405,-137.404c-75.704,-0 -137.404,61.462 -137.404,137.166l86.76,0c0,-28.032 22.588,-50.62 50.621,-50.62c27.794,0 50.62,22.588 50.62,50.62l86.808,0.238Z" style="fill:#e94d4f;fill-rule:nonzero;"/><rect x="100" y="303.063" width="86.784" height="331.278" style="fill:#010202;fill-rule:nonzero;stroke:#FFFFFF;stroke-width:4;"/><rect x="288.049" y="303.063" width="86.784" height="331.278" style="fill:#5d7dbe;fill-rule:nonzero;"/><rect x="425.239" y="303.063" width="86.784" height="244.737" style="fill:#00843f;fill-rule:nonzero;"/></svg>