<?xml version="1.0" encoding="UTF-8" standalone="no"?>
<!DOCTYPE svg PUBLIC "-//W3C//DTD SVG 1.1//EN" "http://www.w3.org/Graphics/SVG/1.1/DTD/svg11.dtd">
<svg width="100%" height="100%" viewBox="0 0 800 800" version="1.1" xmlns="http://www.w3.org/2000/svg" xmlns:xlink="http://www.w3.org/1999/xlink" xml:space="preserve" xmlns:serif="http://www.serif.com/" style="fill-rule:evenodd;clip-rule:evenodd;stroke-linejoin:round;stroke-miterlimit:2;">
    <g transform="matrix(0.877886,0,0,0.882915,48.6852,46.7802)">
        <path d="M769.171,87.104L604.978,8.048C585.974,-1.103 563.26,2.757 548.343,17.672L10.833,507.757C-3.625,520.94 -3.609,543.701 10.868,556.862L54.774,596.775C66.61,607.536 84.434,608.327 97.177,598.661L744.465,107.613C766.18,91.14 797.37,106.628 797.37,133.885L797.37,131.979C797.37,112.846 786.41,95.404 769.171,87.104Z" style="fill:rgb(0,101,169);fill-rule:nonzero;"/>
        <path d="M769.171,711.925L604.978,790.982C585.974,800.13 563.26,796.271 548.343,781.357L10.833,291.272C-3.625,278.09 -3.609,255.328 10.868,242.167L54.774,202.253C66.61,191.493 84.434,190.701 97.177,200.369L744.465,691.415C766.18,707.888 797.37,692.401 797.37,665.142L797.37,667.05C797.37,686.182 786.41,703.623 769.171,711.925Z" style="fill:rgb(0,122,204);fill-rule:nonzero;"/>
        <path d="M604.464,791.045C585.453,800.188 562.739,796.325 547.822,781.408C566.2,799.786 597.628,786.768 597.628,760.776L597.628,38.353C597.628,12.361 566.2,-0.656 547.822,17.723C562.739,2.806 585.453,-1.059 604.464,8.083L768.628,87.031C785.88,95.327 796.85,112.775 796.85,131.916L796.85,667.217C796.85,686.357 785.88,703.805 768.628,712.101L604.464,791.045Z" style="fill:rgb(31,156,240);fill-rule:nonzero;"/>
        <path d="M565.087,792.516C577.638,797.404 591.951,797.092 604.617,790.997L768.682,712.05C785.925,703.754 796.888,686.306 796.888,667.166L796.888,131.866C796.888,112.724 785.925,95.276 768.686,86.981L604.617,8.033C587.995,0.033 568.536,1.993 553.943,12.601C551.861,14.116 549.875,15.808 548.01,17.672L233.927,304.218L97.118,200.369C84.383,190.701 66.569,191.494 54.741,202.253L10.862,242.167C-3.606,255.328 -3.623,278.09 10.826,291.272L129.471,399.514L10.826,507.757C-3.623,520.94 -3.606,543.701 10.862,556.862L54.741,596.775C66.569,607.536 84.383,608.327 97.118,598.661L233.927,494.811L548.01,781.357C552.978,786.328 558.815,790.073 565.087,792.516ZM597.788,218.612L359.468,399.514L597.788,580.417L597.788,218.612Z" style="fill:url(#_Linear1);fill-rule:nonzero;"/>
    </g>
    <defs>
        <linearGradient id="_Linear1" x1="0" y1="0" x2="1" y2="0" gradientUnits="userSpaceOnUse" gradientTransform="matrix(4.85437e-14,792.778,-792.778,4.85437e-14,398.444,3.125)"><stop offset="0" style="stop-color:white;stop-opacity:0.25"/><stop offset="1" style="stop-color:white;stop-opacity:0"/></linearGradient>
    </defs>
</svg>
